<?xml version="1.0" encoding="UTF-8" standalone="no"?>
<svg
   xmlns:osb="http://www.openswatchbook.org/uri/2009/osb"
   xmlns:dc="http://purl.org/dc/elements/1.1/"
   xmlns:cc="http://creativecommons.org/ns#"
   xmlns:rdf="http://www.w3.org/1999/02/22-rdf-syntax-ns#"
   xmlns:svg="http://www.w3.org/2000/svg"
   xmlns="http://www.w3.org/2000/svg"
   xmlns:xlink="http://www.w3.org/1999/xlink"
   version="1.1"
   id="svg2"
   viewBox="0 0 47.117189 15.124999"
   height="4.268611mm"
   width="13.297518mm">
  <defs
     id="defs4">
    <linearGradient
       id="linearGradient5649">
      <stop
         id="stop5651"
         offset="0"
         style="stop-color:#2884d2;stop-opacity:1;" />
      <stop
         id="stop5653"
         offset="1"
         style="stop-color:#62beff;stop-opacity:1" />
    </linearGradient>
    <linearGradient
       osb:paint="solid"
       id="linearGradient5617">
      <stop
         id="stop5619"
         offset="0"
         style="stop-color:#ff0000;stop-opacity:1;" />
    </linearGradient>
    <linearGradient
       gradientUnits="userSpaceOnUse"
       y2="275.98721"
       x2="249.90649"
       y1="260.86221"
       x1="249.91429"
       id="linearGradient5655"
       xlink:href="#linearGradient5649" />
    <linearGradient
       y2="275.98721"
       x2="249.90649"
       y1="260.86221"
       x1="249.91429"
       gradientUnits="userSpaceOnUse"
       id="linearGradient6103"
       xlink:href="#linearGradient5649" />
    <linearGradient
       y2="275.98721"
       x2="249.90649"
       y1="260.86221"
       x1="249.91429"
       gradientUnits="userSpaceOnUse"
       id="linearGradient6105"
       xlink:href="#linearGradient5649" />
    <linearGradient
       y2="275.98721"
       x2="249.90649"
       y1="260.86221"
       x1="249.91429"
       gradientUnits="userSpaceOnUse"
       id="linearGradient6107"
       xlink:href="#linearGradient5649" />
    <linearGradient
       y2="275.98721"
       x2="249.90649"
       y1="260.86221"
       x1="249.91429"
       gradientUnits="userSpaceOnUse"
       id="linearGradient6109"
       xlink:href="#linearGradient5649" />
    <linearGradient
       y2="275.98721"
       x2="249.90649"
       y1="260.86221"
       x1="249.91429"
       gradientUnits="userSpaceOnUse"
       id="linearGradient6111"
       xlink:href="#linearGradient5649" />
    <linearGradient
       y2="275.98721"
       x2="249.90649"
       y1="260.86221"
       x1="249.91429"
       gradientUnits="userSpaceOnUse"
       id="linearGradient6113"
       xlink:href="#linearGradient5649" />
    <linearGradient
       y2="275.98721"
       x2="249.90649"
       y1="260.86221"
       x1="249.91429"
       gradientUnits="userSpaceOnUse"
       id="linearGradient6115"
       xlink:href="#linearGradient5649" />
  </defs>
  <metadata
     id="metadata7">
    <rdf:RDF>
      <cc:Work
         rdf:about="">
        <dc:format>image/svg+xml</dc:format>
        <dc:type
           rdf:resource="http://purl.org/dc/dcmitype/StillImage" />
        <dc:title></dc:title>
      </cc:Work>
    </rdf:RDF>
  </metadata>
  <g
     transform="translate(-229.25752,-263.2739)"
     id="layer1">
    <flowRoot
       style="font-style:normal;font-variant:normal;font-weight:500;font-stretch:normal;font-size:17.5px;line-height:125%;font-family:'CMU Serif';-inkscape-font-specification:'CMU Serif, Medium';text-align:start;letter-spacing:0px;word-spacing:0px;writing-mode:lr-tb;text-anchor:start;fill:#000000;fill-opacity:1;stroke:none;stroke-width:1px;stroke-linecap:butt;stroke-linejoin:miter;stroke-opacity:1"
       id="flowRoot4136"
       xml:space="preserve"><flowRegion
         id="flowRegion4138"><rect
           y="389.50507"
           x="140"
           height="340"
           width="611.42859"
           id="rect4140" /></flowRegion><flowPara
         id="flowPara4142" /></flowRoot>    <text
       id="text4144"
       y="478.07648"
       x="211.42857"
       style="font-style:normal;font-variant:normal;font-weight:500;font-stretch:normal;font-size:45px;line-height:125%;font-family:Ego;-inkscape-font-specification:'Ego, Medium';text-align:start;letter-spacing:0px;word-spacing:0px;writing-mode:lr-tb;text-anchor:start;fill:#000000;fill-opacity:1;stroke:none;stroke-width:1px;stroke-linecap:butt;stroke-linejoin:miter;stroke-opacity:1"
       xml:space="preserve"><tspan
         y="478.07648"
         x="211.42857"
         id="tspan4148" /></text>
    <g
       transform="translate(2.9682308,2.4116875)"
       id="text4150"
       style="font-style:normal;font-variant:normal;font-weight:500;font-stretch:normal;font-size:17.5px;line-height:125%;font-family:Ego;-inkscape-font-specification:'Ego, Medium';text-align:start;letter-spacing:0px;word-spacing:0px;writing-mode:lr-tb;text-anchor:start;opacity:1;fill:url(#linearGradient5655);fill-opacity:1;stroke:#000dff;stroke-width:0.25;stroke-linecap:butt;stroke-linejoin:miter;stroke-miterlimit:4;stroke-dasharray:none;stroke-opacity:1">
      <path
         id="path4159"
         style="fill:url(#linearGradient6103);fill-opacity:1;stroke:#000dff;stroke-width:0.25;stroke-miterlimit:4;stroke-dasharray:none;stroke-opacity:1"
         d="m 232.53929,272.36221 0,-6.93 -1.82,-1.82 -3.43,0 0,1.75 2.695,0 0.805,0.805 0,0.945 -4.375,0 0,5.25 3.5,0 0.875,-1.75 0,1.75 1.75,0 z m -1.75,-1.75 -2.625,0 0,-1.75 2.625,0 0,1.75 z" />
      <path
         id="path4161"
         style="fill:url(#linearGradient6105);fill-opacity:1;stroke:#000dff;stroke-width:0.25;stroke-miterlimit:4;stroke-dasharray:none;stroke-opacity:1"
         d="m 240.05883,272.36221 0,-1.75 -3.57,0 -0.805,-0.805 0,-2.695 0.875,1.75 3.5,0 0,-5.25 -6.125,0 0,6.93 1.82,1.82 4.305,0 z m -1.75,-5.25 -2.625,0 0,-1.75 2.625,0 0,1.75 z" />
      <path
         id="path4163"
         style="fill:url(#linearGradient6107);fill-opacity:1;stroke:#000dff;stroke-width:0.25;stroke-miterlimit:4;stroke-dasharray:none;stroke-opacity:1"
         d="m 247.57836,272.36221 0,-8.75 -4.305,0 -1.82,1.82 0,6.93 6.125,0 z m -1.75,-1.75 -2.625,0 0,-4.445 0.805,-0.805 1.82,0 0,5.25 z" />
      <path
         id="path4165"
         style="fill:url(#linearGradient6109);fill-opacity:1;stroke:#000dff;stroke-width:0.25;stroke-miterlimit:4;stroke-dasharray:none;stroke-opacity:1"
         d="m 255.09789,272.36221 0,-8.75 -2.555,0 -1.82,1.82 0,-1.82 -1.75,0 0,8.75 1.75,0 0,-4.4625 2.555,-2.5375 0.07,0 0,7 1.75,0 z" />
      <path
         id="path4167"
         style="fill:url(#linearGradient6111);fill-opacity:1;stroke:#000dff;stroke-width:0.25;stroke-miterlimit:4;stroke-dasharray:none;stroke-opacity:1"
         d="m 262.61742,275.86221 0,-12.25 -1.75,0 0,1.75 -0.875,-1.75 -3.5,0 0,6.93 1.82,1.82 2.555,0 0,1.75 -3.5,0 0,1.75 5.25,0 z m -1.75,-5.25 -1.82,0 -0.805,-0.805 0,-4.445 2.625,0 0,5.25 z" />
      <path
         id="path4169"
         style="fill:url(#linearGradient6113);fill-opacity:1;stroke:#000dff;stroke-width:0.25;stroke-miterlimit:4;stroke-dasharray:none;stroke-opacity:1"
         d="m 270.13695,272.36221 0,-8.75 -1.75,0 0,7 -1.82,0 -0.805,-0.805 0,-6.195 -1.75,0 0,6.93 1.82,1.82 4.305,0 z" />
      <path
         id="path4171"
         style="fill:url(#linearGradient6115);fill-opacity:1;stroke:#000dff;stroke-width:0.25;stroke-miterlimit:4;stroke-dasharray:none;stroke-opacity:1"
         d="m 273.28148,262.73721 0,-1.75 -1.75,0 0,1.75 1.75,0 z m 0,9.625 0,-8.75 -1.75,0 0,8.75 1.75,0 z" />
    </g>
  </g>
</svg>
