<?xml version="1.0" encoding="UTF-8" standalone="no"?>
<!-- Created with Inkscape (http://www.inkscape.org/) -->

<svg
   xmlns:dc="http://purl.org/dc/elements/1.1/"
   xmlns:cc="http://creativecommons.org/ns#"
   xmlns:rdf="http://www.w3.org/1999/02/22-rdf-syntax-ns#"
   xmlns:svg="http://www.w3.org/2000/svg"
   xmlns="http://www.w3.org/2000/svg"
   xmlns:sodipodi="http://sodipodi.sourceforge.net/DTD/sodipodi-0.dtd"
   xmlns:inkscape="http://www.inkscape.org/namespaces/inkscape"
   width="800"
   height="600"
   viewBox="0 0 800 600"
   version="1.1"
   id="svg8"
   inkscape:version="0.92.4 (5da689c313, 2019-01-14)"
   sodipodi:docname="drawing.svg">
  <defs
     id="defs2">
    <inkscape:perspective
       sodipodi:type="inkscape:persp3d"
       inkscape:vp_x="-8.6934521 : 188.56547 : 1"
       inkscape:vp_y="0 : 999.99997 : 0"
       inkscape:vp_z="203.38542 : 181.95088 : 1"
       inkscape:persp3d-origin="98.385416 : 41.16964 : 1"
       id="perspective3719" />
  </defs>
  <sodipodi:namedview
     id="base"
     pagecolor="#ffffff"
     bordercolor="#666666"
     borderopacity="1.0"
     inkscape:pageopacity="0.0"
     inkscape:pageshadow="2"
     inkscape:zoom="1"
     inkscape:cx="113"
     inkscape:cy="283.86957"
     inkscape:document-units="mm"
     inkscape:current-layer="layer1"
     showgrid="false"
     inkscape:window-width="1920"
     inkscape:window-height="1017"
     inkscape:window-x="1912"
     inkscape:window-y="-8"
     inkscape:window-maximized="1"
     units="px" />
  <metadata
     id="metadata5">
    <rdf:RDF>
      <cc:Work
         rdf:about="">
        <dc:format>image/svg+xml</dc:format>
        <dc:type
           rdf:resource="http://purl.org/dc/dcmitype/StillImage" />
        <dc:title />
      </cc:Work>
    </rdf:RDF>
  </metadata>
  <script
     id="script3726">window.console.log(&quot;Hello World!&quot;);</script>
  <g
     inkscape:label="Layer 1"
     inkscape:groupmode="layer"
     id="layer1">
    <g
       id="ClickMeButton"
       style="fill:#2e4268;fill-opacity:0.75362321;stroke:#000000;stroke-opacity:1">
      <path
         d="m 301.26274,224.00743 h 197.86438 c 18.73671,0 33.82079,15.08407 33.82079,33.82079 v 76.15455 c 0,18.73672 -15.08408,33.82079 -33.82079,33.82079 H 301.26274 c -18.73671,0 -33.82078,-15.08407 -33.82078,-33.82079 v -76.15455 c 0,-18.73672 15.08407,-33.82079 33.82078,-33.82079 z"
         id="rectangle"
         inkscape:connector-curvature="0" />
      <g
         aria-label="Click Me"
         id="text4540">
        <path
           d="m 343.32971,308.72775 q -1.07422,0.46875 -1.95312,0.87891 -0.85938,0.41016 -2.26563,0.85937 -1.1914,0.3711 -2.59765,0.625 -1.38672,0.27344 -3.06641,0.27344 -3.16406,0 -5.76172,-0.8789 -2.57812,-0.89844 -4.49219,-2.79297 -1.875,-1.85547 -2.92968,-4.70703 -1.05469,-2.8711 -1.05469,-6.66016 0,-3.59375 1.01562,-6.42578 1.01563,-2.83203 2.92969,-4.78516 1.85547,-1.89453 4.47266,-2.89062 2.63672,-0.9961 5.83984,-0.9961 2.34375,0 4.66797,0.56641 2.34375,0.56641 5.19531,1.99219 v 4.58984 h -0.29297 q -2.40234,-2.01172 -4.76562,-2.92969 -2.36328,-0.91797 -5.0586,-0.91797 -2.20703,0 -3.98437,0.72266 -1.75781,0.70313 -3.14453,2.20703 -1.34766,1.46485 -2.10938,3.71094 -0.74218,2.22656 -0.74218,5.15625 0,3.06641 0.82031,5.27344 0.83984,2.20703 2.14844,3.59375 1.36718,1.44531 3.18359,2.14843 1.83594,0.6836 3.86719,0.6836 2.79297,0 5.23437,-0.95703 2.44141,-0.95703 4.57031,-2.8711 h 0.27344 z"
           id="path4547"
           inkscape:connector-curvature="0" />
        <path
           d="m 352.25549,310.83713 h -3.67187 V 280.4465 h 3.67187 z"
           id="path4549"
           inkscape:connector-curvature="0" />
        <path
           d="m 363.50549,285.36838 h -4.14062 v -3.8086 h 4.14062 z m -0.23437,25.46875 h -3.67188 v -21.81641 h 3.67188 z"
           id="path4551"
           inkscape:connector-curvature="0" />
        <path
           d="m 386.70862,309.46994 q -1.83594,0.87891 -3.4961,1.36719 -1.64062,0.48828 -3.49609,0.48828 -2.36328,0 -4.33594,-0.68359 -1.97265,-0.70313 -3.3789,-2.10938 -1.42578,-1.40625 -2.20703,-3.55469 -0.78125,-2.14843 -0.78125,-5.01953 0,-5.35156 2.92968,-8.39844 2.94922,-3.04687 7.77344,-3.04687 1.875,0 3.67188,0.52734 1.8164,0.52735 3.32031,1.28907 v 4.08203 h -0.19531 q -1.67969,-1.3086 -3.47657,-2.01172 -1.77734,-0.70313 -3.47656,-0.70313 -3.125,0 -4.94141,2.10938 -1.79687,2.08984 -1.79687,6.15234 0,3.94531 1.75781,6.07422 1.77735,2.10938 4.98047,2.10938 1.11328,0 2.26563,-0.29297 1.15234,-0.29297 2.07031,-0.76172 0.80078,-0.41016 1.5039,-0.85938 0.70313,-0.46875 1.11329,-0.80078 h 0.19531 z"
           id="path4553"
           inkscape:connector-curvature="0" />
        <path
           d="m 411.23987,310.83713 h -4.84375 l -8.75,-9.55078 -2.38281,2.26562 v 7.28516 h -3.67188 V 280.4465 h 3.67188 v 19.49219 l 10.60546,-10.91797 h 4.62891 l -10.13672,10.07813 z"
           id="path4555"
           inkscape:connector-curvature="0" />
        <path
           d="m 455.36096,310.83713 h -3.86719 v -25.0586 l -8.08593,17.05079 h -2.30469 l -8.02734,-17.05079 v 25.0586 h -3.61329 V 281.7551 h 5.27344 l 7.75391,16.1914 7.5,-16.1914 h 5.37109 z"
           id="path4557"
           inkscape:connector-curvature="0" />
        <path
           d="m 481.18127,300.30978 h -16.07421 q 0,2.01172 0.60546,3.51563 0.60547,1.48437 1.66016,2.44141 1.01563,0.9375 2.40234,1.40625 1.40625,0.46875 3.08594,0.46875 2.22656,0 4.47266,-0.87891 2.26562,-0.89844 3.22265,-1.75781 h 0.19532 v 4.0039 q -1.85547,0.78125 -3.78907,1.3086 -1.93359,0.52734 -4.0625,0.52734 -5.42968,0 -8.47656,-2.92969 -3.04687,-2.94922 -3.04687,-8.35937 0,-5.35156 2.91015,-8.4961 2.92969,-3.14453 7.69532,-3.14453 4.41406,0 6.79687,2.57813 2.40234,2.57812 2.40234,7.32422 z m -3.57421,-2.8125 q -0.0195,-2.89062 -1.46485,-4.47265 -1.42578,-1.58203 -4.35547,-1.58203 -2.94922,0 -4.70703,1.73828 -1.73828,1.73828 -1.97265,4.3164 z"
           id="path4559"
           inkscape:connector-curvature="0" />
      </g>
    </g>
  </g>
  <!-- <polygon points="220,10 300,210 170,250 123,234" style="fill:lime;stroke:purple;stroke-width:1" /> -->
  <polyline points="220,10 300,210 170,250 123,234" style="fill:none;stroke:purple;stroke-width:1" />
</svg>
